<svg width="160" height="84" viewBox="0 0 160 84" fill="none" xmlns="http://www.w3.org/2000/svg">
<path d="M116.274 0L153.749 62.7046H78.7976L116.274 0Z" fill="black"/>
<path d="M98.628 0L120.823 37.1816H76.4335L98.628 0Z" fill="white"/>
<path d="M30.9905 20.47C32.4838 20.47 33.8138 20.785 34.9805 21.415C36.1471 22.0217 37.0688 22.9433 37.7455 24.18C38.4221 25.4167 38.7605 26.9217 38.7605 28.695V40H35.6105V29.15C35.6105 27.2367 35.1321 25.7783 34.1755 24.775C33.2421 23.7483 31.9705 23.235 30.3605 23.235C28.7038 23.235 27.3855 23.7717 26.4055 24.845C25.4255 25.895 24.9355 27.4233 24.9355 29.43V40H21.7855V29.15C21.7855 27.2367 21.3071 25.7783 20.3505 24.775C19.4171 23.7483 18.1455 23.235 16.5355 23.235C14.8788 23.235 13.5605 23.7717 12.5805 24.845C11.6005 25.895 11.1105 27.4233 11.1105 29.43V40H7.92547V20.82H11.1105V23.585C11.7405 22.5817 12.5805 21.8117 13.6305 21.275C14.7038 20.7383 15.8821 20.47 17.1655 20.47C18.7755 20.47 20.1988 20.8317 21.4355 21.555C22.6721 22.2783 23.5938 23.34 24.2005 24.74C24.7371 23.3867 25.6238 22.3367 26.8605 21.59C28.0971 20.8433 29.4738 20.47 30.9905 20.47ZM61.485 29.675C61.485 30.2817 61.45 30.9233 61.38 31.6H46.05C46.1667 33.49 46.8084 34.9717 47.975 36.045C49.165 37.095 50.6 37.62 52.28 37.62C53.6567 37.62 54.8 37.305 55.71 36.675C56.6434 36.0217 57.2967 35.1583 57.67 34.085H61.1C60.5867 35.9283 59.56 37.4333 58.02 38.6C56.48 39.7433 54.5667 40.315 52.28 40.315C50.46 40.315 48.8267 39.9067 47.38 39.09C45.9567 38.2733 44.8367 37.1183 44.02 35.625C43.2034 34.1083 42.795 32.3583 42.795 30.375C42.795 28.3917 43.1917 26.6533 43.985 25.16C44.7784 23.6667 45.8867 22.5233 47.31 21.73C48.7567 20.9133 50.4134 20.505 52.28 20.505C54.1 20.505 55.71 20.9017 57.11 21.695C58.51 22.4883 59.5834 23.585 60.33 24.985C61.1 26.3617 61.485 27.925 61.485 29.675ZM58.195 29.01C58.195 27.7967 57.9267 26.7583 57.39 25.895C56.8534 25.0083 56.1184 24.3433 55.185 23.9C54.275 23.4333 53.26 23.2 52.14 23.2C50.53 23.2 49.1534 23.7133 48.01 24.74C46.89 25.7667 46.2484 27.19 46.085 29.01H58.195ZM75.0341 20.47C77.3675 20.47 79.2575 21.1817 80.7041 22.605C82.1508 24.005 82.8741 26.035 82.8741 28.695V40H79.7241V29.15C79.7241 27.2367 79.2458 25.7783 78.2891 24.775C77.3325 23.7483 76.0258 23.235 74.3691 23.235C72.6891 23.235 71.3475 23.76 70.3441 24.81C69.3641 25.86 68.8741 27.3883 68.8741 29.395V40H65.6891V20.82H68.8741V23.55C69.5041 22.57 70.3558 21.8117 71.4291 21.275C72.5258 20.7383 73.7275 20.47 75.0341 20.47ZM105.087 20.82V40H101.902V37.165C101.295 38.145 100.444 38.915 99.3468 39.475C98.2735 40.0117 97.0835 40.28 95.7768 40.28C94.2835 40.28 92.9418 39.9767 91.7518 39.37C90.5618 38.74 89.6168 37.8067 88.9168 36.57C88.2402 35.3333 87.9018 33.8283 87.9018 32.055V20.82H91.0518V31.635C91.0518 33.525 91.5302 34.9833 92.4868 36.01C93.4435 37.0133 94.7502 37.515 96.4068 37.515C98.1102 37.515 99.4518 36.99 100.432 35.94C101.412 34.89 101.902 33.3617 101.902 31.355V20.82H105.087Z" fill="black"/>
</svg>
