<svg width="160" height="84" viewBox="0 0 160 84" fill="none" xmlns="http://www.w3.org/2000/svg">
<path d="M116.274 0L153.749 62.7046H78.7976L116.274 0Z" fill="black"/>
<path d="M98.628 0L120.823 37.1816H76.4335L98.628 0Z" fill="white"/>
<path d="M25.7384 40.315C24.2684 40.315 22.9501 40.07 21.7834 39.58C20.6168 39.0667 19.6951 38.3667 19.0184 37.48C18.3418 36.57 17.9684 35.5317 17.8984 34.365H21.1884C21.2818 35.3217 21.7251 36.1033 22.5184 36.71C23.3351 37.3167 24.3968 37.62 25.7034 37.62C26.9168 37.62 27.8734 37.3517 28.5734 36.815C29.2734 36.2783 29.6234 35.6017 29.6234 34.785C29.6234 33.945 29.2501 33.3267 28.5034 32.93C27.7568 32.51 26.6018 32.1017 25.0384 31.705C23.6151 31.3317 22.4484 30.9583 21.5384 30.585C20.6518 30.1883 19.8818 29.6167 19.2284 28.87C18.5984 28.1 18.2834 27.0967 18.2834 25.86C18.2834 24.88 18.5751 23.9817 19.1584 23.165C19.7418 22.3483 20.5701 21.7067 21.6434 21.24C22.7168 20.75 23.9418 20.505 25.3184 20.505C27.4418 20.505 29.1568 21.0417 30.4634 22.115C31.7701 23.1883 32.4701 24.6583 32.5634 26.525H29.3784C29.3084 25.5217 28.9001 24.7167 28.1534 24.11C27.4301 23.5033 26.4501 23.2 25.2134 23.2C24.0701 23.2 23.1601 23.445 22.4834 23.935C21.8068 24.425 21.4684 25.0667 21.4684 25.86C21.4684 26.49 21.6668 27.015 22.0634 27.435C22.4834 27.8317 22.9968 28.1583 23.6034 28.415C24.2334 28.6483 25.0968 28.9167 26.1934 29.22C27.5701 29.5933 28.6901 29.9667 29.5534 30.34C30.4168 30.69 31.1518 31.2267 31.7584 31.95C32.3884 32.6733 32.7151 33.6183 32.7384 34.785C32.7384 35.835 32.4468 36.78 31.8634 37.62C31.2801 38.46 30.4518 39.125 29.3784 39.615C28.3284 40.0817 27.1151 40.315 25.7384 40.315ZM41.1196 23.445V34.75C41.1196 35.6833 41.3179 36.3483 41.7146 36.745C42.1112 37.1183 42.7996 37.305 43.7796 37.305H46.1246V40H43.2546C41.4812 40 40.1512 39.5917 39.2646 38.775C38.3779 37.9583 37.9346 36.6167 37.9346 34.75V23.445H35.4496V20.82H37.9346V15.99H41.1196V20.82H46.1246V23.445H41.1196ZM48.7936 30.34C48.7936 28.38 49.1902 26.665 49.9836 25.195C50.7769 23.7017 51.8619 22.5467 53.2386 21.73C54.6386 20.9133 56.1902 20.505 57.8936 20.505C59.5736 20.505 61.0319 20.8667 62.2686 21.59C63.5052 22.3133 64.4269 23.2233 65.0336 24.32V20.82H68.2536V40H65.0336V36.43C64.4036 37.55 63.4586 38.4833 62.1986 39.23C60.9619 39.9533 59.5152 40.315 57.8586 40.315C56.1552 40.315 54.6152 39.895 53.2386 39.055C51.8619 38.215 50.7769 37.0367 49.9836 35.52C49.1902 34.0033 48.7936 32.2767 48.7936 30.34ZM65.0336 30.375C65.0336 28.9283 64.7419 27.6683 64.1586 26.595C63.5752 25.5217 62.7819 24.705 61.7786 24.145C60.7986 23.5617 59.7136 23.27 58.5236 23.27C57.3336 23.27 56.2486 23.55 55.2686 24.11C54.2886 24.67 53.5069 25.4867 52.9236 26.56C52.3402 27.6333 52.0486 28.8933 52.0486 30.34C52.0486 31.81 52.3402 33.0933 52.9236 34.19C53.5069 35.2633 54.2886 36.0917 55.2686 36.675C56.2486 37.235 57.3336 37.515 58.5236 37.515C59.7136 37.515 60.7986 37.235 61.7786 36.675C62.7819 36.0917 63.5752 35.2633 64.1586 34.19C64.7419 33.0933 65.0336 31.8217 65.0336 30.375ZM76.8209 23.935C77.3809 22.8383 78.1743 21.9867 79.2009 21.38C80.2509 20.7733 81.5226 20.47 83.0159 20.47V23.76H82.1759C78.6059 23.76 76.8209 25.6967 76.8209 29.57V40H73.6359V20.82H76.8209V23.935ZM90.5776 23.445V34.75C90.5776 35.6833 90.7759 36.3483 91.1726 36.745C91.5692 37.1183 92.2576 37.305 93.2376 37.305H95.5826V40H92.7126C90.9392 40 89.6092 39.5917 88.7226 38.775C87.8359 37.9583 87.3926 36.6167 87.3926 34.75V23.445H84.9076V20.82H87.3926V15.99H90.5776V20.82H95.5826V23.445H90.5776Z" fill="black"/>
</svg>
